<svg viewBox="0 0 500 350" version="1.1" id="svg761" width="500" height="350" xml:space="preserve" xmlns:xlink="http://www.w3.org/1999/xlink" xmlns="http://www.w3.org/2000/svg"><defs id="defs697"><path id="a" fill-opacity=".6" d="M0 0h95v23H0z"/></defs><defs id="defs744"><linearGradient id="f" x1="323.795" x2="72.114" y1="283.316" y2="22.646" gradientTransform="scale(.08058 .08127)" gradientUnits="userSpaceOnUse"><stop offset="0" stop-color="#892c6c" id="stop699"/><stop offset="1" stop-color="#d14671" id="stop701"/></linearGradient><linearGradient id="g" x1="57.988" x2="318.658" y1="17.51" y2="279.464" gradientTransform="scale(.08058 .08127)" gradientUnits="userSpaceOnUse"><stop offset="0" stop-color="#c34170" id="stop704"/><stop offset="1" stop-color="#8b2c6c" id="stop706"/></linearGradient><linearGradient id="i" x1="312.238" x2="46.432" y1="276.898" y2="17.512" gradientTransform="scale(.08058 .08127)" gradientUnits="userSpaceOnUse"><stop offset="0" stop-color="#882b6b" id="stop709"/><stop offset="1" stop-color="#cf4671" id="stop711"/></linearGradient><linearGradient id="d" x1="34.713" x2="70.973" y1="192.381" y2="89.576" gradientTransform="scale(.08058 .08127)" gradientUnits="userSpaceOnUse"><stop offset="0" stop-color="#fff" stop-opacity=".38" id="stop714"/><stop offset=".86" stop-color="#fff" stop-opacity=".012" id="stop716"/><stop offset="1" stop-color="#fff" stop-opacity="0" id="stop718"/></linearGradient><clipPath id="e"><path d="M.016.066H19v22.922H.016zm0 0" id="path721"/></clipPath><clipPath id="h"><path d="M8 11h18.352v11.988H8zm0 0" id="path724"/></clipPath><clipPath id="j"><path d="M.016.066h26.336v22.922H.016zm0 0" id="path727"/></clipPath><clipPath id="c"><use xlink:href="#a" id="use730"/></clipPath><filter id="b" width="1" height="1" x="0" y="0" filterUnits="objectBoundingBox"><feColorMatrix in="SourceGraphic" values="0 0 0 0 1 0 0 0 0 1 0 0 0 0 1 0 0 0 1 0" id="feColorMatrix733"/></filter><mask id="k"><g filter="url(#b)" id="g738"><use fill-opacity=".6" xlink:href="#a" id="use736"/></g></mask><g id="l" clip-path="url(#c)"><path fill="url(#d)" d="M1.543 5.809c-2.793 8.02 5.55 11.367 5.55 11.367-.894-.66-2.011-2.207-2.347-3.313-.707-2.281-.484-4.082.672-6.07" id="path741"/></g></defs><g id="layer5" display="inline"><rect id="rect1792" width="500" height="350" x="0" y="0" ry="0" display="inline" fill="#fff" fill-opacity="1" stroke="none" stroke-width="14.215" stroke-dasharray="none"/></g><g id="layer3"><g id="g830" transform="matrix(4.5 0 0 4.5 36.212 48.454)"><path id="text" d="M79.29 17.137c3.593 0 5.722-2.25 5.722-5.989 0-3.722-2.13-5.964-5.64-5.964h-4.075v11.953zm-1.86-1.871V7.059h1.82c2.395 0 3.64 1.355 3.64 4.09 0 2.75-1.245 4.117-3.703 4.117zm8.777 1.87h4.77c2.699 0 4.023-1.394 4.023-3.253 0-1.809-1.266-2.871-2.52-2.938v-.117c1.149-.273 2.06-1.09 2.06-2.543 0-1.781-1.267-3.101-3.821-3.101h-4.512zm2.133-1.808v-3.5h2.355c1.317 0 2.133.817 2.133 1.883 0 .953-.644 1.617-2.191 1.617zm0-5.058V6.973h2.16c1.254 0 1.906.668 1.906 1.593 0 1.047-.844 1.704-1.953 1.704zm-47.719.906c0-3.785-2.277-6.016-5.305-6.016-3.03 0-5.304 2.23-5.304 6.016 0 3.777 2.273 6.012 5.304 6.012.735 0 1.422-.133 2.047-.383l.953 1.226h2.028l-1.602-2.078c1.16-1.031 1.88-2.66 1.88-4.777zm-6.016 1.918l1.563 2.082a3.2 3.2 0 01-.852.11c-1.879 0-3.203-1.45-3.203-4.11 0-2.664 1.325-4.113 3.203-4.113 1.883 0 3.204 1.449 3.204 4.113 0 1.437-.387 2.52-1.04 3.21l-.98-1.292zm12.75.086c0 1.336-.94 2-1.843 2-.98 0-1.633-.703-1.633-1.82V8.09h-2.04v5.59c0 2.11 1.165 3.367 2.868 3.367 1.297 0 2.227-.754 2.621-1.738h.09v1.738h1.977V8.09h-2.04zm7.45 4.02c2.02 0 3.406-1 3.765-2.528l-1.906-.219c-.273.746-.953 1.133-1.832 1.133-1.316 0-2.191-.879-2.207-2.383h6.031v-.633c0-3.082-1.828-4.437-3.957-4.437-2.48 0-4.097 1.847-4.097 4.554 0 2.758 1.593 4.512 4.203 4.512zm-2.176-5.391c.062-1.121.879-2.063 2.098-2.063 1.171 0 1.96.867 1.972 2.063zm14.316-1.243c-.28-1.484-1.453-2.433-3.48-2.433-2.086 0-3.508 1.039-3.5 2.664-.008 1.281.77 2.125 2.433 2.476l1.477.313c.797.176 1.168.504 1.168 1 0 .602-.645 1.05-1.613 1.05-.934 0-1.543-.41-1.72-1.198l-1.987.195c.254 1.61 1.59 2.566 3.715 2.566 2.164 0 3.69-1.136 3.695-2.8-.004-1.254-.801-2.02-2.434-2.38l-1.476-.32c-.88-.199-1.23-.508-1.223-1.015-.008-.594.64-1.008 1.492-1.008.942 0 1.438.52 1.594 1.097zm6.215-2.32h-1.71V6.145h-2.04v2.101h-1.226v1.602h1.226v4.882c-.012 1.653 1.172 2.461 2.707 2.418.578-.02.98-.132 1.2-.207l-.344-1.617a2.604 2.604 0 01-.598.078c-.512 0-.926-.18-.926-1.015v-4.54h1.711zm0 0" fill="#000"/><g clip-path="url(#e)" id="g749"><path fill="url(#f)" d="M4.336 11.508c0-3.973 3.242-7.172 7.266-7.172 1.453 0 2.793.402 3.91 1.14l3.129-3.054A11.63 11.63 0 0011.6.066C5.196.066.017 5.18.017 11.508c0 6.332 5.18 11.445 11.586 11.445v-4.27c-4.024 0-7.266-3.199-7.266-7.175zm0 0" id="path747"/></g><path fill="url(#g)" d="M18.863 11.508h4.32c0-3.016-1.19-5.774-3.128-7.836L17 6.692a7.192 7.192 0 011.863 4.816zm0 0" id="path751"/><g clip-path="url(#h)" id="g755"><path fill="url(#i)" d="M15.14 11.879H8.77l11.25 11.11 6.332-.036zm0 0" id="path753"/></g><g clip-path="url(#j)" id="g759"><use mask="url(#k)" xlink:href="#l" id="use757"/></g></g><g id="g920" transform="matrix(4.5 0 0 4.5 196 120.1)"><path fill="#d11d13" d="M15 7c-2 0-3 2-3 2s-1-2-3-2c-2.5 0-4 2-4 4 0 4 5 5 7 8 2-3 7-4 7-8 0-2-1.5-4-4-4z" id="path4264" fill-opacity="1"/></g><g id="g999" transform="translate(105.27 185.093) scale(.25368)"><path fill-rule="evenodd" clip-rule="evenodd" d="M48.859 43.518c8.424 17.64 2.736 140.832-7.128 184.032-9.864 43.272-19.728 98.28-22.032 144.576-1.008 19.728 2.016 27.504 14.904 27.504 22.752 0 51.624-47.952 87.84-46.872 36.288 1.08 47.808 55.008 64.8 54.648 16.992-.36 30.672-6.264 30.816-58.752.504-156.673-130.824-283.681-169.2-305.136z" id="path938"/><path fill-rule="evenodd" clip-rule="evenodd" d="M162.763 168.726c7.992 13.464 28.368 3.096 29.232-12.096.864-15.192-1.368-34.344-11.232-35.064-9.864-.72-16.92-10.584-26.784-11.304-9.864-.72-20.448 9.144-25.056-3.96-4.608-13.104 12.384-18.648 25.056-20.736-11.304-11.304-17.928-23.832-22.896-36.864-4.968-13.032-8.64-24.984 5.256-30.096 13.896-5.112 12.744 21.168 28.656 33.192-4.68-17.712-6.408-25.056-6.048-35.352.36-10.296-.36-18.144 14.256-16.128 14.616 2.016 8.28 32.4 19.656 44.784 3.456-11.736 5.544-26.64 13.896-32.76 8.352-6.12 27.36-6.264 15.264 18.864s3.528 38.736-.144 58.536c-3.672 19.8-15.048 16.2-19.944 28.944-4.896 12.744 2.88 41.76-6.336 54.792-9.216 13.032-10.872 33.048-4.896 49.032-18.36-17.136-27.936-53.784-27.936-53.784z" id="path940"/><path fill-rule="evenodd" clip-rule="evenodd" d="M48.355 185.646c-7.416 50.832-33.192 56.88-34.488 77.976-1.296 21.096 6.84 23.112 6.336 42.624-.504 19.512-17.856 27.432-19.944 38.016-2.088 10.584 8.928 13.968 15.336 13.968 6.408 0 12.816-28.08 15.408-45.936 2.592-17.856-8.496-28.368-8.496-40.608 0-12.24 16.056-34.632 13.104-14.976 13.32-21.024 19.657-47.809 12.744-71.064z" id="path942"/><path fill-rule="evenodd" clip-rule="evenodd" fill="#fff" d="M58.292 205.013c-5.616 27.504-40.68 181.08-22.824 183.024 17.856 1.944 43.272-47.52 84.888-47.16 41.688.36 58.104 55.44 68.256 55.08 10.152-.36 16.848 3.6 17.928-58.464 1.08-62.064-36.792-141.336-59.184-176.256-30.385 1.944-63.073 26.281-89.064 43.776z" id="path944"/><g id="g973"><path fill="none" d="M139.162 172.181c-1.95-18.251-19.12-25.421-35.661-23.168-13.889 1.893-32.403 13.613-34.107 28.64-1.921 16.937 11.402 32.522 28.361 33.203 15.03.604 31.176-6.668 37.93-20.79 2.73-5.704 3.797-11.578 3.477-17.885" id="path946"/><path d="M147.082 171.533c-1.662-17.195-14.407-27.988-30.895-30.627-15.924-2.549-33.26 4.998-44.408 16.146-12.538 12.538-13.039 29.978-4.26 44.833 8.661 14.657 27.847 19.501 43.563 15.835 21.506-5.015 37.398-23.824 36-46.187" id="path948"/><radialGradient id="SVGID_1_" cx="86.63" cy="167.069" r="54.715" gradientUnits="userSpaceOnUse"><stop offset="0" id="stop950" stop-color="#fff"/><stop offset=".06" id="stop952" stop-color="#fbc8b4"/><stop offset=".071" id="stop954" stop-color="#fbc3b0"/><stop offset=".183" id="stop956" stop-color="#f7978b"/><stop offset=".299" id="stop958" stop-color="#f4716b"/><stop offset=".42" id="stop960" stop-color="#f15251"/><stop offset=".545" id="stop962" stop-color="#ef3a3d"/><stop offset=".678" id="stop964" stop-color="#ee292f"/><stop offset=".822" id="stop966" stop-color="#ed1f27"/><stop offset="1" id="stop968" stop-color="#ed1c24"/></radialGradient><path fill="url(#SVGID_1_)" stroke="#000" d="M139.162 177.941c-1.493 15.627-13.947 28.182-28.944 31.824-15.87 3.854-33.393-2.257-39.096-18.576-2.912-8.332-2.37-16.879 2.637-24.198 4.223-6.171 11.033-11 17.779-14.066 13.924-6.326 33.832-7.029 43.531 7.077 3.675 5.346 4.318 11.639 4.093 17.939" id="path971"/></g></g><g aria-label="&amp;" id="text1216" transform="matrix(.9 0 0 .9 -2.706 20.067)" font-size="53.334" stroke-width="5"><path d="M253.685 264.662q-2.318 2.578-5.052 3.88-2.735 1.276-5.912 1.276-5.86 0-9.297-3.958-2.786-3.23-2.786-7.214 0-3.542 2.266-6.38 2.291-2.865 6.823-5.026-2.579-2.969-3.438-4.818-.86-1.849-.86-3.568 0-3.437 2.683-5.963 2.708-2.552 6.797-2.552 3.906 0 6.38 2.396 2.5 2.395 2.5 5.755 0 5.442-7.213 9.297l6.848 8.724q1.172-2.292 1.823-5.313l4.87 1.042q-1.25 5-3.385 8.229 2.63 3.49 5.963 5.86l-3.15 3.723q-2.84-1.823-5.86-5.39zm-9.531-19.896q3.047-1.797 3.932-3.151.911-1.354.911-2.995 0-1.953-1.25-3.177-1.224-1.25-3.073-1.25-1.9 0-3.177 1.224-1.25 1.224-1.25 2.995 0 .885.443 1.875.469.963 1.38 2.057zm6.588 16.198l-8.594-10.651q-3.802 2.265-5.13 4.218-1.328 1.928-1.328 3.829 0 2.317 1.849 4.817t5.234 2.5q2.11 0 4.35-1.302 2.265-1.328 3.62-3.411z" style="-inkscape-font-specification:Arial" id="path1415" font-family="Arial"/></g><g id="g1159" transform="translate(271.295 189.635) scale(.13466)" clip-rule="evenodd" fill-rule="evenodd" stroke-linejoin="round" stroke-miterlimit="1.414"><g id="Layer-1"><g transform="translate(1009.4 506.362)" id="g1099"><path d="M0-7.203l-12.072-25.006c.063-.947.111-1.898.111-2.853 0-28.346-29.478-54.471-79.069-75.389v17.393a348.81 348.81 0 00-15.117-5.593v-8.108c-70.874-25.56-176.383-41.778-294.241-41.778-102.973 0-196.529 12.38-265.791 32.554v28.246h-.002v-34.188c-70.96 22.55-114.954 53.877-114.954 88.515 0 5.46 1.101 10.838 3.217 16.113l-7.228 12.867s-5.792 7.512 4.406 23.362c8.994 13.977 54.048 68.685 77.827 97.335 10.214 14.687 17.141 23.734 17.746 22.859.955-1.386-6.351-28.961-26.635-60.423-9.466-16.895-20.768-39.283-27.554-55.819 18.942 11.99 130.23 68.029 357.232 67.801C-150.13 90.453-47.009 17.834-35.691 7.948c-3.955 15.889-17.468 48.033-28.245 70.638-17.706 32.331-24.12 60.478-23.296 61.87.524.878 6.565-8.441 15.476-23.543C-51.025 87.37-11.739 30.974-3.889 16.608 5.007.323 0-7.203 0-7.203" id="path1097" fill="#a52b00" fill-rule="nonzero"/></g><g transform="translate(1079.49 294.885)" id="g1103"><path d="M0 204.135l-79.343-58.446c-.745-2.6-1.49-5.201-2.26-7.781l26.062-37.754c2.66-3.84 3.196-8.832 1.469-13.211-1.731-4.358-5.515-7.482-9.99-8.247l-44.066-7.479c-1.709-3.485-3.498-6.916-5.294-10.319l18.515-42.388c1.903-4.317 1.505-9.335-1.022-13.254-2.517-3.937-6.786-6.237-11.338-6.058L-151.991.823a368.174 368.174 0 00-7.067-8.937l10.278-45.432c1.042-4.612-.274-9.443-3.487-12.794-3.195-3.339-7.838-4.722-12.253-3.639l-43.562 10.709a375.714 375.714 0 00-8.588-7.365l1.567-46.641c.168-4.721-2.033-9.208-5.812-11.829-3.777-2.636-8.57-3.032-12.701-1.074l-40.638 19.321a453.612 453.612 0 00-9.892-5.537l-7.181-45.961c-.729-4.656-3.724-8.612-7.919-10.418-4.185-1.817-8.976-1.228-12.648 1.536l-36.232 27.185a385.098 385.098 0 00-10.779-3.407l-15.617-43.585c-1.588-4.443-5.25-7.706-9.716-8.624-4.45-.909-9.028.632-12.114 4.08l-30.499 34.119c-3.685-.423-7.377-.81-11.076-1.131l-23.549-39.676c-2.384-4.018-6.597-6.464-11.139-6.464-4.529 0-8.75 2.446-11.118 6.464l-23.555 39.676a399.69 399.69 0 00-11.088 1.131l-30.499-34.119c-3.09-3.448-7.684-4.989-12.122-4.08-4.46.93-8.128 4.181-9.707 8.624l-15.629 43.585a427.446 427.446 0 00-10.78 3.407l-36.22-27.185c-3.683-2.774-8.478-3.361-12.668-1.536-4.181 1.806-7.188 5.762-7.913 10.418l-7.186 45.961a442.679 442.679 0 00-9.895 5.537l-40.634-19.321a12.602 12.602 0 00-12.704 1.074c-3.773 2.621-5.98 7.108-5.81 11.829l1.562 46.641a427.292 427.292 0 00-8.591 7.365l-43.554-10.709c-4.423-1.074-9.062.3-12.265 3.639-3.221 3.351-4.526 8.182-3.491 12.794l10.257 45.432a439.731 439.731 0 00-7.042 8.937l-44.724-1.625c-4.513-.135-8.821 2.121-11.343 6.058-2.527 3.919-2.91 8.937-1.029 13.254l18.528 42.388c-1.799 3.403-3.586 6.834-5.309 10.319l-44.063 7.479c-4.479.754-8.252 3.876-9.994 8.247-1.728 4.379-1.167 9.371 1.474 13.211l26.066 37.754c-.201.667-.387 1.339-.587 2.008l-73.696 78.285s-11.296 8.851 5.147 29.654c14.5 18.351 88.951 91.096 128.271 129.205 16.606 19.348 27.984 31.329 29.172 30.293 1.876-1.645-7.972-36.847-40.682-78.149-25.216-37.056-57.941-94.049-50.267-100.618 0 0 8.729-11.081 26.242-19.057.641.512-.662-.507 0 0 0 0 369.595 170.491 712.429 2.884 39.164-7.025 62.873 13.955 62.873 13.955 8.176 4.74-12.996 63.344-30.407 102.137-23.679 44.05-27.151 78.422-25.144 79.614 1.268.757 9.883-12.353 22.172-33.217C-67.814 332.649-10.492 252.1 0 232.534c11.895-22.182 0-28.399 0-28.399" id="path1101" fill="#f74c00" fill-rule="nonzero"/></g><g transform="translate(917.896 244.679)" id="g1107"><path d="M0 232.466S53.179 230 123.032 159.004l9.898-21.979S24.513 29.177 193.048-45.266c0 0-14.755 24.112-10.426 117.272 0 0 50.815-17.649 65.714-99.94 0 0 74.12 97.724-80.502 189.377 0 0-72.54 116.289-174.805 105.15z" id="path1105" fill="#f74c00" fill-rule="nonzero"/></g><g transform="translate(676.997 488.361)" id="g1111"><path d="M0-78.192s36.935-40.443 73.871 0c0 0 29.022 53.927 0 80.887 0 0-47.487 37.748-73.871 0 0 0-31.658-29.659 0-80.887" id="path1109" fill-rule="nonzero"/></g><g transform="translate(719.761 425.169)" id="g1115"><path d="M0 .004C0 15.75-9.282 28.518-20.732 28.518c-11.448 0-20.73-12.768-20.73-28.514 0-15.75 9.282-28.518 20.73-28.518C-9.282-28.514 0-15.746 0 .004" id="path1113" fill="#fff" fill-rule="nonzero"/></g><g transform="translate(512.148 482.736)" id="g1119"><path d="M0-83.609s63.355-28.052 80.648 34.562c0 0 18.114 72.98-52.03 77.099 0 0-89.444-17.228-28.618-111.661" id="path1117" fill-rule="nonzero"/></g><g transform="translate(543.968 426.204)" id="g1123"><path d="M0 .002c0 16.239-9.572 29.409-21.381 29.409-11.804 0-21.379-13.17-21.379-29.409 0-16.244 9.575-29.411 21.379-29.411C-9.572-29.409 0-16.242 0 .002" id="path1121" fill="#fff" fill-rule="nonzero"/></g><g transform="translate(593.317 576.574)" id="g1127"><path d="M0-40.271l80.796-6.484s-2.738 13.006-13.279 22.769c0 0-27.79 30.47-59.673-2.533 0 0-5.217-5.629-7.844-13.752" id="path1125" fill-rule="nonzero"/></g><g transform="translate(269.796 270.778)" id="g1131"><path d="M0 190.741c-.667 0-1.321.049-1.973.101-26.234-5.971-99.973-25.185-119.464-56.363 0 0 99.227-112.872-55.86-185.019l18.057 124.878s-47.809-31.949-58.126-101.346c0 0-116.423 84.494 51.384 165.474 0 0 15.22 57.187 161.349 102.815l.107-.435a24.82 24.82 0 004.526.435c13.808 0 25.003-11.312 25.003-25.271 0-13.956-11.195-25.269-25.003-25.269" id="path1129" fill="#f74c00" fill-rule="nonzero"/></g></g></g></g></svg>